<svg xmlns="http://www.w3.org/2000/svg" viewBox="0 0 28 20" role="img" aria-label="United States flag">
  <rect width="28" height="20" fill="#fff"/>
  <g fill="#b22234">
    <rect width="28" height="2" y="0"/>
    <rect width="28" height="2" y="4"/>
    <rect width="28" height="2" y="8"/>
    <rect width="28" height="2" y="12"/>
    <rect width="28" height="2" y="16"/>
  </g>
  <rect width="12" height="8" fill="#3c3b6e"/>
  <g fill="#fff" transform="translate(1 1) scale(0.5)">
    <circle cx="2" cy="2" r="1"/>
    <circle cx="6" cy="2" r="1"/>
    <circle cx="10" cy="2" r="1"/>
    <circle cx="14" cy="2" r="1"/>
    <circle cx="18" cy="2" r="1"/>
    <circle cx="2" cy="6" r="1"/>
    <circle cx="6" cy="6" r="1"/>
    <circle cx="10" cy="6" r="1"/>
    <circle cx="14" cy="6" r="1"/>
    <circle cx="18" cy="6" r="1"/>
    <circle cx="4" cy="4" r="1"/>
    <circle cx="8" cy="4" r="1"/>
    <circle cx="12" cy="4" r="1"/>
    <circle cx="16" cy="4" r="1"/>
  </g>
</svg>
