<svg version="1.1" id="Layer_1" xmlns="http://www.w3.org/2000/svg" xmlns:xlink="http://www.w3.org/1999/xlink" x="0px" y="0px"
	 width="100%" viewBox="0 0 1000 439" enable-background="new 0 0 1000 439" xml:space="preserve">
<path fill="#000000" opacity="1.000000" stroke="none" 
	d="
M756.000000,440.000000 
	C504.000000,440.000000 252.500000,440.000000 1.000000,440.000000 
	C1.000000,293.666656 1.000000,147.333328 1.000000,1.000000 
	C334.333344,1.000000 667.666687,1.000000 1001.000000,1.000000 
	C1001.000000,147.333328 1001.000000,293.666656 1001.000000,440.000000 
	C919.500000,440.000000 838.000000,440.000000 756.000000,440.000000 
M153.035629,44.590149 
	C148.229156,52.020412 143.508163,59.508171 138.570282,66.850052 
	C136.821320,69.450485 134.993332,72.443527 132.434555,73.981277 
	C115.764656,83.999420 98.923965,93.736412 82.060669,103.428825 
	C65.203323,113.117821 48.288704,122.708771 31.323053,132.206711 
	C26.656210,134.819351 24.924179,138.477097 24.934261,143.758255 
	C25.040512,199.413849 25.032940,255.069763 24.920280,310.725342 
	C24.913330,314.158417 26.111626,316.368256 28.861092,317.974274 
	C36.348572,322.347839 43.872295,326.659363 51.357628,331.036560 
	C64.405479,338.666626 77.429382,346.337646 90.474304,353.972748 
	C105.316719,362.659821 120.168449,371.330994 135.021164,380.000397 
	C148.209869,387.698578 161.534470,395.176514 174.513794,403.212463 
	C178.072952,405.416046 181.017029,405.108643 183.974747,403.435852 
	C196.002472,396.633606 207.909653,389.617126 219.829941,382.626221 
	C240.905777,370.265900 261.958527,357.866211 283.021332,345.483612 
	C298.545746,336.357025 314.121429,327.315063 329.522827,317.985382 
	C331.196686,316.971436 332.850983,314.300781 332.856781,312.393524 
	C333.032593,254.738663 333.028320,197.083069 332.869476,139.428116 
	C332.864471,137.613464 331.382233,135.052048 329.821777,134.112854 
	C318.665222,127.397812 307.298157,121.033295 296.019684,114.519791 
	C279.461548,104.957176 262.775421,95.604187 246.427170,85.694466 
	C236.227966,79.512062 224.971924,75.226357 218.447281,63.399708 
	C208.984650,46.247601 197.531021,30.195629 186.968689,13.647560 
	C183.323517,7.936645 177.203003,7.530560 173.429489,13.177927 
	C166.632965,23.349476 160.127213,33.715317 153.035629,44.590149 
M529.306030,370.997864 
	C530.381836,370.666260 531.440857,370.260376 532.535889,370.014160 
	C548.723877,366.374207 562.586975,358.939575 573.506104,346.097473 
	C583.069336,334.849945 587.675537,321.661804 587.838867,307.375061 
	C588.299805,267.050110 588.002441,226.716492 587.990173,186.386292 
	C587.989685,184.960083 587.842529,183.533920 587.776123,182.331482 
	C573.266357,182.331482 559.192444,182.331482 544.757690,182.331482 
	C544.757690,187.718323 544.757690,192.777084 544.757690,198.601562 
	C543.314697,197.450775 542.467041,196.797729 541.644165,196.114731 
	C537.216309,192.439255 533.259399,187.872360 528.277832,185.252670 
	C516.464844,179.040543 503.637878,178.780106 490.663910,180.974319 
	C469.980835,184.472305 456.262238,197.181427 447.536499,215.218506 
	C439.062805,232.734543 438.795227,251.623337 443.138916,270.241943 
	C449.070618,295.667267 470.538910,317.616974 499.733337,316.237885 
	C515.229309,315.505920 528.114380,311.013611 538.835693,299.148590 
	C538.731018,304.554230 538.670837,310.047058 537.231079,315.150726 
	C531.832092,334.288818 513.674133,338.211884 497.080078,335.426544 
	C485.646179,333.507324 475.725891,327.645447 466.730896,319.594788 
	C458.013397,328.811249 449.417786,337.898865 440.646362,347.172363 
	C465.663574,371.671783 495.606842,376.612549 529.306030,370.997864 
M834.000000,276.481873 
	C835.142029,282.302551 835.148804,288.671661 837.644531,293.838470 
	C844.429321,307.885040 856.147949,315.609070 871.705078,318.127441 
	C885.868958,320.420319 898.823181,318.149231 910.548889,309.973694 
	C915.717957,306.369598 920.408569,302.079132 925.390503,298.040253 
	C925.781006,298.706482 926.388733,299.324554 926.521667,300.031830 
	C929.133362,313.924377 939.706177,319.162231 953.541077,318.916077 
	C960.978577,318.783752 968.400818,317.791534 975.881592,317.183075 
	C975.881592,302.817963 975.881592,289.185394 975.881592,275.571869 
	C968.936707,273.253601 967.004089,270.519897 967.001099,263.043213 
	C966.996948,252.548462 967.344055,242.039078 966.898560,231.563278 
	C966.492065,222.004242 964.459167,212.658875 958.975403,204.541718 
	C947.750671,187.926636 930.697388,181.601913 911.930542,180.287003 
	C899.717285,179.431274 887.187500,180.483139 875.025696,182.242966 
	C863.084290,183.970886 851.913940,188.876343 841.825806,195.752258 
	C841.017456,196.303192 840.215088,198.143829 840.542297,198.885544 
	C844.727112,208.371170 849.118774,217.765564 853.588135,227.465759 
	C859.707153,224.307938 865.252991,221.114777 871.064697,218.516235 
	C882.873413,213.236282 895.055603,210.952988 907.833984,214.990463 
	C914.571228,217.119156 920.685913,227.859818 916.952332,233.374542 
	C898.805359,228.717499 881.217224,228.221512 863.300903,234.778641 
	C846.120422,241.066452 832.679382,257.962860 834.000000,276.481873 
M656.000000,194.892700 
	C656.000000,190.638718 656.000000,186.384735 656.000000,182.321259 
	C640.614014,182.321259 625.878906,182.321259 611.302979,182.321259 
	C611.302979,227.033493 611.302979,271.423950 611.302979,315.700897 
	C627.674927,315.700897 643.742371,315.700897 660.000000,315.700897 
	C660.000000,293.764954 660.607849,272.103302 659.745728,250.500290 
	C659.309082,239.558945 664.615967,232.595078 672.046509,226.780624 
	C676.988098,222.913788 683.127319,221.007538 689.679016,224.852768 
	C695.394714,228.207352 696.934387,233.365540 696.958862,239.247940 
	C697.058044,263.069397 697.000000,286.891479 697.000000,310.713348 
	C697.000000,312.456909 697.000000,314.200470 697.000000,315.640381 
	C713.797058,315.640381 729.866211,315.640381 746.000000,315.640381 
	C746.000000,285.797272 746.112000,256.313019 745.908813,226.830887 
	C745.866333,220.677521 745.262878,214.391098 743.865479,208.411987 
	C740.783447,195.225113 733.643311,184.852631 719.790833,181.553314 
	C713.026917,179.942307 705.740906,179.903275 698.721741,180.123688 
	C687.144531,180.487228 676.040833,183.143661 666.439575,190.126831 
	C663.802246,192.044998 661.544312,194.483109 658.919800,196.422058 
	C658.434875,196.780334 656.034302,199.698151 656.000000,194.892700 
M372.000000,185.500000 
	C372.000000,228.925629 372.000000,272.351257 372.000000,315.713562 
	C389.307373,315.713562 406.045349,315.713562 422.716064,315.713562 
	C422.716064,255.692642 422.716064,195.958588 422.716064,136.286407 
	C405.692688,136.286407 388.954712,136.286407 372.000000,136.286407 
	C372.000000,152.547897 372.000000,168.523956 372.000000,185.500000 
M818.000000,215.500000 
	C818.000000,204.402985 818.000000,193.305984 818.000000,182.289459 
	C801.352539,182.289459 785.281433,182.289459 769.287354,182.289459 
	C769.287354,226.980576 769.287354,271.381653 769.287354,315.710602 
	C785.647339,315.710602 801.718506,315.710602 818.000000,315.710602 
	C818.000000,282.447784 818.000000,249.473892 818.000000,215.500000 
M796.499756,130.000000 
	C787.404419,130.000000 778.309082,130.000000 769.281311,130.000000 
	C769.281311,144.304718 769.281311,158.039215 769.281311,171.722855 
	C785.630920,171.722855 801.697693,171.722855 817.999390,171.722855 
	C817.999390,158.811279 817.947327,146.175247 818.037476,133.540237 
	C818.058899,130.530701 816.582214,129.918121 813.990601,129.967911 
	C808.495361,130.073502 802.996704,130.000046 796.499756,130.000000 
M967.037842,419.438538 
	C974.738586,409.010223 977.157471,397.572815 976.255920,384.506256 
	C974.979004,366.000732 960.098022,348.638428 938.861633,349.903778 
	C929.319641,350.472290 919.715698,350.000000 910.280029,350.000000 
	C910.280029,377.350189 910.280029,404.059784 910.280029,431.000000 
	C920.352661,431.000000 930.147095,431.033325 939.941223,430.990814 
	C950.294678,430.945892 959.057922,426.992737 967.037842,419.438538 
M735.023376,402.101898 
	C737.927551,411.060455 742.632507,419.382477 750.078857,424.712341 
	C757.882568,430.298065 767.011414,432.685303 777.502258,431.299652 
	C795.067566,428.979584 808.279846,411.560425 809.888977,396.563171 
	C811.488464,381.656158 807.007812,368.782440 795.810059,358.139832 
	C784.916931,347.786835 768.695740,346.187988 756.092346,352.643646 
	C738.522827,361.642975 730.209900,382.001251 735.023376,402.101898 
M888.448975,350.000000 
	C886.694458,350.000000 884.939941,350.000000 883.000000,350.000000 
	C883.000000,364.241455 883.179688,377.880005 882.925110,391.510406 
	C882.795593,398.447998 880.972290,404.977875 878.290100,411.586426 
	C872.577087,425.662292 849.038452,425.778107 841.232544,417.853424 
	C834.755432,411.277679 832.339722,403.223816 832.108337,394.553558 
	C831.714661,379.801025 832.000000,365.030334 832.000000,350.249023 
	C828.757874,350.249023 826.021851,350.249023 824.001404,350.249023 
	C824.001404,368.031403 823.172791,385.615356 824.355469,403.062988 
	C824.935669,411.622528 828.822571,419.931854 836.838501,425.543671 
	C846.371277,432.217468 856.699341,433.093658 867.359436,430.669098 
	C873.178833,429.345520 878.220154,426.040680 882.526489,421.254303 
	C889.566406,413.429688 891.214722,403.884644 891.787964,394.345398 
	C892.615479,380.575134 892.052307,366.717499 891.887817,352.899475 
	C891.876221,351.923340 890.265076,350.966248 888.448975,350.000000 
M595.997864,405.370697 
	C599.238892,415.048187 605.396790,423.194763 614.004761,427.693695 
	C632.072083,437.136475 656.216919,430.332031 663.833923,412.490356 
	C662.998596,412.003387 662.067383,411.632355 661.350830,411.013092 
	C658.191956,408.283264 656.583130,409.118713 653.801453,412.390198 
	C640.124207,428.475647 620.715637,427.502960 608.754761,410.819305 
	C598.831482,396.977905 599.085449,381.990387 610.000427,367.730713 
	C616.679077,359.005585 625.966980,355.288483 637.150146,358.000946 
	C645.235352,359.962036 651.780212,363.959625 654.987122,371.987671 
	C657.632568,370.342438 659.898376,368.933228 662.109619,367.558044 
	C655.250488,351.429474 636.881287,346.073547 620.785950,350.580383 
	C599.086365,356.656494 587.297424,384.186371 595.997864,405.370697 
M676.000183,352.696655 
	C676.000183,378.773987 676.000183,404.851349 676.000183,430.643555 
	C695.124573,430.643555 713.532532,430.643555 731.823242,430.643555 
	C731.823242,427.995422 731.823242,425.705322 731.823242,422.845215 
	C716.119873,422.845215 700.583252,422.845215 684.840942,422.845215 
	C684.840942,398.314148 684.840942,374.357361 684.840942,349.188568 
	C681.579834,350.128357 678.791626,350.931854 676.000183,352.696655 
z"/>
<path fill="#FFFFFF" opacity="1.000000" stroke="none" 
	d="
M153.267822,44.295074 
	C160.127213,33.715317 166.632965,23.349476 173.429489,13.177927 
	C177.203003,7.530560 183.323517,7.936645 186.968689,13.647560 
	C197.531021,30.195629 208.984650,46.247601 218.447281,63.399708 
	C224.971924,75.226357 236.227966,79.512062 246.427170,85.694466 
	C262.775421,95.604187 279.461548,104.957176 296.019684,114.519791 
	C307.298157,121.033295 318.665222,127.397812 329.821777,134.112854 
	C331.382233,135.052048 332.864471,137.613464 332.869476,139.428116 
	C333.028320,197.083069 333.032593,254.738663 332.856781,312.393524 
	C332.850983,314.300781 331.196686,316.971436 329.522827,317.985382 
	C314.121429,327.315063 298.545746,336.357025 283.021332,345.483612 
	C261.958527,357.866211 240.905777,370.265900 219.829941,382.626221 
	C207.909653,389.617126 196.002472,396.633606 183.974747,403.435852 
	C181.017029,405.108643 178.072952,405.416046 174.513794,403.212463 
	C161.534470,395.176514 148.209869,387.698578 135.021164,380.000397 
	C120.168449,371.330994 105.316719,362.659821 90.474304,353.972748 
	C77.429382,346.337646 64.405479,338.666626 51.357628,331.036560 
	C43.872295,326.659363 36.348572,322.347839 28.861092,317.974274 
	C26.111626,316.368256 24.913330,314.158417 24.920280,310.725342 
	C25.032940,255.069763 25.040512,199.413849 24.934261,143.758255 
	C24.924179,138.477097 26.656210,134.819351 31.323053,132.206711 
	C48.288704,122.708771 65.203323,113.117821 82.060669,103.428825 
	C98.923965,93.736412 115.764656,83.999420 132.434555,73.981277 
	C134.993332,72.443527 136.821320,69.450485 138.570282,66.850052 
	C143.508163,59.508171 148.229156,52.020412 153.267822,44.295074 
M87.000000,180.590607 
	C87.000000,202.580368 86.956223,224.570343 87.068542,246.559525 
	C87.079636,248.729691 87.527542,251.222458 88.654877,253.008743 
	C95.353577,263.623016 101.878029,274.393372 109.315849,284.480988 
	C115.684799,293.118958 119.725075,303.470520 128.678146,310.262939 
	C145.097351,322.719696 161.277878,335.490997 177.684845,347.964172 
	C178.697357,348.733887 181.314896,348.713013 182.340256,347.939423 
	C191.804352,340.799194 201.048508,333.368561 210.427460,326.113953 
	C215.558380,322.145172 220.947891,318.504120 225.992432,314.432404 
	C229.986465,311.208557 234.447861,308.115479 237.289703,303.991394 
	C248.527405,287.683136 259.237427,271.010254 270.049805,254.411774 
	C271.039734,252.892075 271.909576,250.942474 271.918121,249.188049 
	C272.038452,224.366821 272.039337,199.544647 271.925049,174.723373 
	C271.915924,172.743515 271.253723,170.513199 270.202820,168.831909 
	C262.101410,155.870834 253.888016,142.978577 245.597931,130.136917 
	C226.743271,100.930397 207.838364,71.756287 188.918015,42.592266 
	C186.084320,38.224384 183.057114,33.982040 179.808441,29.226391 
	C170.242264,43.943001 161.073914,57.945381 152.008789,72.014267 
	C131.963104,103.124763 112.072289,134.335938 91.840889,165.324936 
	C88.880272,169.859772 86.118874,174.000748 87.000000,180.590607 
M54.598030,148.000107 
	C48.923786,149.175217 45.778172,152.136826 47.294285,156.679001 
	C48.271313,159.606094 51.709095,162.657425 54.722210,163.708084 
	C58.110203,164.889435 62.681156,159.829269 62.981071,155.891998 
	C63.229485,152.630920 59.637920,148.885239 54.598030,148.000107 
M310.746613,158.783920 
	C310.830658,157.142731 311.516052,155.191360 310.865112,153.929230 
	C309.742096,151.751740 308.133331,149.181152 306.080231,148.318893 
	C304.247498,147.549210 301.280396,148.355270 299.273193,149.372421 
	C295.652222,151.207321 294.886719,155.121902 296.359741,158.271271 
	C297.479034,160.664368 300.526733,163.408264 302.907684,163.598190 
	C305.186035,163.779953 307.711212,160.867569 310.746613,158.783920 
M48.382923,292.093628 
	C45.962639,297.690460 47.400883,302.519226 51.914337,303.950012 
	C56.520252,305.410126 61.714024,302.871826 62.271408,297.961060 
	C62.537056,295.620575 60.732838,292.438965 58.901024,290.599640 
	C55.639374,287.324646 52.058067,288.688416 48.382923,292.093628 
M300.958557,303.978882 
	C306.898163,304.016693 310.474609,301.790771 311.023804,297.929047 
	C311.653961,293.498230 309.494049,290.514343 305.750183,289.122375 
	C301.582977,287.572998 298.360016,290.097595 296.270477,293.416748 
	C294.344208,296.476501 296.491119,301.439148 300.958557,303.978882 
z"/>
<path fill="#FFFFFF" opacity="1.000000" stroke="none" 
	d="
M528.865417,370.998962 
	C495.606842,376.612549 465.663574,371.671783 440.646362,347.172363 
	C449.417786,337.898865 458.013397,328.811249 466.730896,319.594788 
	C475.725891,327.645447 485.646179,333.507324 497.080078,335.426544 
	C513.674133,338.211884 531.832092,334.288818 537.231079,315.150726 
	C538.670837,310.047058 538.731018,304.554230 538.835693,299.148590 
	C528.114380,311.013611 515.229309,315.505920 499.733337,316.237885 
	C470.538910,317.616974 449.070618,295.667267 443.138916,270.241943 
	C438.795227,251.623337 439.062805,232.734543 447.536499,215.218506 
	C456.262238,197.181427 469.980835,184.472305 490.663910,180.974319 
	C503.637878,178.780106 516.464844,179.040543 528.277832,185.252670 
	C533.259399,187.872360 537.216309,192.439255 541.644165,196.114731 
	C542.467041,196.797729 543.314697,197.450775 544.757690,198.601562 
	C544.757690,192.777084 544.757690,187.718323 544.757690,182.331482 
	C559.192444,182.331482 573.266357,182.331482 587.776123,182.331482 
	C587.842529,183.533920 587.989685,184.960083 587.990173,186.386292 
	C588.002441,226.716492 588.299805,267.050110 587.838867,307.375061 
	C587.675537,321.661804 583.069336,334.849945 573.506104,346.097473 
	C562.586975,358.939575 548.723877,366.374207 532.535889,370.014160 
	C531.440857,370.260376 530.381836,370.666260 528.865417,370.998962 
M521.909485,276.984741 
	C534.058411,271.678375 540.801025,267.262787 539.009766,251.791565 
	C538.933655,251.134018 538.930603,250.451553 539.010376,249.794891 
	C540.268555,239.439087 535.670837,231.808533 527.525330,226.146683 
	C522.618347,222.735886 517.355103,220.177200 510.859711,221.509644 
	C501.514496,223.426666 496.545044,229.911423 493.057098,237.892227 
	C489.199860,246.717941 490.188202,262.348083 498.432220,270.184204 
	C505.089478,276.512024 512.653931,277.523041 521.909485,276.984741 
z"/>
<path fill="#FFFFFF" opacity="1.000000" stroke="none" 
	d="
M834.000000,276.000977 
	C832.679382,257.962860 846.120422,241.066452 863.300903,234.778641 
	C881.217224,228.221512 898.805359,228.717499 916.952332,233.374542 
	C920.685913,227.859818 914.571228,217.119156 907.833984,214.990463 
	C895.055603,210.952988 882.873413,213.236282 871.064697,218.516235 
	C865.252991,221.114777 859.707153,224.307938 853.588135,227.465759 
	C849.118774,217.765564 844.727112,208.371170 840.542297,198.885544 
	C840.215088,198.143829 841.017456,196.303192 841.825806,195.752258 
	C851.913940,188.876343 863.084290,183.970886 875.025696,182.242966 
	C887.187500,180.483139 899.717285,179.431274 911.930542,180.287003 
	C930.697388,181.601913 947.750671,187.926636 958.975403,204.541718 
	C964.459167,212.658875 966.492065,222.004242 966.898560,231.563278 
	C967.344055,242.039078 966.996948,252.548462 967.001099,263.043213 
	C967.004089,270.519897 968.936707,273.253601 975.881592,275.571869 
	C975.881592,289.185394 975.881592,302.817963 975.881592,317.183075 
	C968.400818,317.791534 960.978577,318.783752 953.541077,318.916077 
	C939.706177,319.162231 929.133362,313.924377 926.521667,300.031830 
	C926.388733,299.324554 925.781006,298.706482 925.390503,298.040253 
	C920.408569,302.079132 915.717957,306.369598 910.548889,309.973694 
	C898.823181,318.149231 885.868958,320.420319 871.705078,318.127441 
	C856.147949,315.609070 844.429321,307.885040 837.644531,293.838470 
	C835.148804,288.671661 835.142029,282.302551 834.000000,276.000977 
M902.087769,282.976196 
	C904.994446,281.657928 907.961548,280.457001 910.795837,278.998169 
	C917.773193,275.406891 919.101013,269.105804 917.887268,262.225281 
	C917.007202,257.236755 912.008118,258.898529 908.799194,258.053589 
	C900.708801,255.923355 892.763794,256.011963 885.509033,261.123169 
	C878.371643,266.151550 878.012085,275.783142 885.092529,280.530396 
	C889.984070,283.810028 895.559021,284.117767 902.087769,282.976196 
z"/>
<path fill="#FFFFFF" opacity="1.000000" stroke="none" 
	d="
M656.000122,195.316238 
	C656.034302,199.698151 658.434875,196.780334 658.919800,196.422058 
	C661.544312,194.483109 663.802246,192.044998 666.439575,190.126831 
	C676.040833,183.143661 687.144531,180.487228 698.721741,180.123688 
	C705.740906,179.903275 713.026917,179.942307 719.790833,181.553314 
	C733.643311,184.852631 740.783447,195.225113 743.865479,208.411987 
	C745.262878,214.391098 745.866333,220.677521 745.908813,226.830887 
	C746.112000,256.313019 746.000000,285.797272 746.000000,315.640381 
	C729.866211,315.640381 713.797058,315.640381 697.000000,315.640381 
	C697.000000,314.200470 697.000000,312.456909 697.000000,310.713348 
	C697.000000,286.891479 697.058044,263.069397 696.958862,239.247940 
	C696.934387,233.365540 695.394714,228.207352 689.679016,224.852768 
	C683.127319,221.007538 676.988098,222.913788 672.046509,226.780624 
	C664.615967,232.595078 659.309082,239.558945 659.745728,250.500290 
	C660.607849,272.103302 660.000000,293.764954 660.000000,315.700897 
	C643.742371,315.700897 627.674927,315.700897 611.302979,315.700897 
	C611.302979,271.423950 611.302979,227.033493 611.302979,182.321259 
	C625.878906,182.321259 640.614014,182.321259 656.000000,182.321259 
	C656.000000,186.384735 656.000000,190.638718 656.000122,195.316238 
z"/>
<path fill="#FFFFFF" opacity="1.000000" stroke="none" 
	d="
M372.000000,185.000000 
	C372.000000,168.523956 372.000000,152.547897 372.000000,136.286407 
	C388.954712,136.286407 405.692688,136.286407 422.716064,136.286407 
	C422.716064,195.958588 422.716064,255.692642 422.716064,315.713562 
	C406.045349,315.713562 389.307373,315.713562 372.000000,315.713562 
	C372.000000,272.351257 372.000000,228.925629 372.000000,185.000000 
z"/>
<path fill="#FFFFFF" opacity="1.000000" stroke="none" 
	d="
M818.000000,216.000000 
	C818.000000,249.473892 818.000000,282.447784 818.000000,315.710602 
	C801.718506,315.710602 785.647339,315.710602 769.287354,315.710602 
	C769.287354,271.381653 769.287354,226.980576 769.287354,182.289459 
	C785.281433,182.289459 801.352539,182.289459 818.000000,182.289459 
	C818.000000,193.305984 818.000000,204.402985 818.000000,216.000000 
z"/>
<path fill="#FFFFFF" opacity="1.000000" stroke="none" 
	d="
M796.999634,130.000000 
	C802.996704,130.000046 808.495361,130.073502 813.990601,129.967911 
	C816.582214,129.918121 818.058899,130.530701 818.037476,133.540237 
	C817.947327,146.175247 817.999390,158.811279 817.999390,171.722855 
	C801.697693,171.722855 785.630920,171.722855 769.281311,171.722855 
	C769.281311,158.039215 769.281311,144.304718 769.281311,130.000000 
	C778.309082,130.000000 787.404419,130.000000 796.999634,130.000000 
z"/>
<path fill="#FFFFFF" opacity="1.000000" stroke="none" 
	d="
M966.788086,419.707214 
	C959.057922,426.992737 950.294678,430.945892 939.941223,430.990814 
	C930.147095,431.033325 920.352661,431.000000 910.280029,431.000000 
	C910.280029,404.059784 910.280029,377.350189 910.280029,350.000000 
	C919.715698,350.000000 929.319641,350.472290 938.861633,349.903778 
	C960.098022,348.638428 974.979004,366.000732 976.255920,384.506256 
	C977.157471,397.572815 974.738586,409.010223 966.788086,419.707214 
M967.000183,383.535034 
	C965.871704,373.462616 960.788635,365.938873 952.023499,361.032257 
	C941.523804,355.154602 930.172791,359.236023 919.271973,357.883301 
	C919.271973,379.965759 919.271973,401.359436 919.271973,423.000000 
	C926.176819,423.000000 932.812805,423.014648 939.448608,422.997192 
	C957.485718,422.949738 972.791199,401.515503 967.000183,383.535034 
z"/>
<path fill="#FFFFFF" opacity="1.000000" stroke="none" 
	d="
M735.012207,401.671509 
	C730.209900,382.001251 738.522827,361.642975 756.092346,352.643646 
	C768.695740,346.187988 784.916931,347.786835 795.810059,358.139832 
	C807.007812,368.782440 811.488464,381.656158 809.888977,396.563171 
	C808.279846,411.560425 795.067566,428.979584 777.502258,431.299652 
	C767.011414,432.685303 757.882568,430.298065 750.078857,424.712341 
	C742.632507,419.382477 737.927551,411.060455 735.012207,401.671509 
M750.414734,412.944031 
	C751.125549,413.645020 751.841797,414.340668 752.546387,415.047882 
	C764.065918,426.609467 781.609009,426.382080 792.266907,414.073578 
	C802.878540,401.818634 804.110107,385.964203 796.634216,372.482239 
	C791.301575,362.865265 782.439880,356.684540 771.189758,357.216064 
	C757.097534,357.881927 747.462646,367.529327 744.025269,381.049988 
	C741.149719,392.360565 743.269958,402.826996 750.414734,412.944031 
z"/>
<path fill="#FFFFFF" opacity="1.000000" stroke="none" 
	d="
M888.923340,350.000153 
	C890.265076,350.966248 891.876221,351.923340 891.887817,352.899475 
	C892.052307,366.717499 892.615479,380.575134 891.787964,394.345398 
	C891.214722,403.884644 889.566406,413.429688 882.526489,421.254303 
	C878.220154,426.040680 873.178833,429.345520 867.359436,430.669098 
	C856.699341,433.093658 846.371277,432.217468 836.838501,425.543671 
	C828.822571,419.931854 824.935669,411.622528 824.355469,403.062988 
	C823.172791,385.615356 824.001404,368.031403 824.001404,350.249023 
	C826.021851,350.249023 828.757874,350.249023 832.000000,350.249023 
	C832.000000,365.030334 831.714661,379.801025 832.108337,394.553558 
	C832.339722,403.223816 834.755432,411.277679 841.232544,417.853424 
	C849.038452,425.778107 872.577087,425.662292 878.290100,411.586426 
	C880.972290,404.977875 882.795593,398.447998 882.925110,391.510406 
	C883.179688,377.880005 883.000000,364.241455 883.000000,350.000000 
	C884.939941,350.000000 886.694458,350.000000 888.923340,350.000153 
z"/>
<path fill="#FFFFFF" opacity="1.000000" stroke="none" 
	d="
M595.974121,404.960724 
	C587.297424,384.186371 599.086365,356.656494 620.785950,350.580383 
	C636.881287,346.073547 655.250488,351.429474 662.109619,367.558044 
	C659.898376,368.933228 657.632568,370.342438 654.987122,371.987671 
	C651.780212,363.959625 645.235352,359.962036 637.150146,358.000946 
	C625.966980,355.288483 616.679077,359.005585 610.000427,367.730713 
	C599.085449,381.990387 598.831482,396.977905 608.754761,410.819305 
	C620.715637,427.502960 640.124207,428.475647 653.801453,412.390198 
	C656.583130,409.118713 658.191956,408.283264 661.350830,411.013092 
	C662.067383,411.632355 662.998596,412.003387 663.833923,412.490356 
	C656.216919,430.332031 632.072083,437.136475 614.004761,427.693695 
	C605.396790,423.194763 599.238892,415.048187 595.974121,404.960724 
z"/>
<path fill="#FFFFFF" opacity="1.000000" stroke="none" 
	d="
M676.001831,352.216003 
	C678.791626,350.931854 681.579834,350.128357 684.840942,349.188568 
	C684.840942,374.357361 684.840942,398.314148 684.840942,422.845215 
	C700.583252,422.845215 716.119873,422.845215 731.823242,422.845215 
	C731.823242,425.705322 731.823242,427.995422 731.823242,430.643555 
	C713.532532,430.643555 695.124573,430.643555 676.000183,430.643555 
	C676.000183,404.851349 676.000183,378.773987 676.001831,352.216003 
z"/>
<path fill="#000000" opacity="1.000000" stroke="none" 
	d="
M87.000000,180.107620 
	C86.118874,174.000748 88.880272,169.859772 91.840889,165.324936 
	C112.072289,134.335938 131.963104,103.124763 152.008789,72.014267 
	C161.073914,57.945381 170.242264,43.943001 179.808441,29.226391 
	C183.057114,33.982040 186.084320,38.224384 188.918015,42.592266 
	C207.838364,71.756287 226.743271,100.930397 245.597931,130.136917 
	C253.888016,142.978577 262.101410,155.870834 270.202820,168.831909 
	C271.253723,170.513199 271.915924,172.743515 271.925049,174.723373 
	C272.039337,199.544647 272.038452,224.366821 271.918121,249.188049 
	C271.909576,250.942474 271.039734,252.892075 270.049805,254.411774 
	C259.237427,271.010254 248.527405,287.683136 237.289703,303.991394 
	C234.447861,308.115479 229.986465,311.208557 225.992432,314.432404 
	C220.947891,318.504120 215.558380,322.145172 210.427460,326.113953 
	C201.048508,333.368561 191.804352,340.799194 182.340256,347.939423 
	C181.314896,348.713013 178.697357,348.733887 177.684845,347.964172 
	C161.277878,335.490997 145.097351,322.719696 128.678146,310.262939 
	C119.725075,303.470520 115.684799,293.118958 109.315849,284.480988 
	C101.878029,274.393372 95.353577,263.623016 88.654877,253.008743 
	C87.527542,251.222458 87.079636,248.729691 87.068542,246.559525 
	C86.956223,224.570343 87.000000,202.580368 87.000000,180.107620 
M223.514023,140.010468 
	C219.786621,129.424316 216.128479,118.803238 208.721191,109.955406 
	C208.026947,111.452980 207.819107,112.758888 208.058975,113.976608 
	C210.566849,126.708191 208.447800,138.741791 203.164764,150.473846 
	C196.815857,164.572830 185.431015,174.136307 173.899246,183.539627 
	C158.880249,195.786530 146.779327,210.224625 139.342209,228.259735 
	C134.601807,239.755325 133.666382,252.013123 135.273300,264.005493 
	C137.098999,277.630646 144.500565,289.216797 152.710999,300.078125 
	C153.511124,301.136597 155.154343,301.557739 157.000000,302.614777 
	C157.000000,297.290588 157.059982,292.965698 156.989456,288.642944 
	C156.709290,271.470673 166.058243,258.701904 177.296387,247.567032 
	C188.552368,236.414505 201.482773,226.973053 213.133499,216.191833 
	C224.669601,205.516678 229.131897,191.328003 229.904602,176.053284 
	C230.518158,163.924438 227.348801,152.252945 223.514023,140.010468 
M125.630455,251.107071 
	C126.308128,252.165787 126.985794,253.224487 127.863686,254.595993 
	C129.232559,245.563995 129.454620,237.396530 131.794968,229.889435 
	C139.401825,205.489182 157.191971,188.749802 176.118729,172.929291 
	C185.932526,164.726105 194.016937,155.104248 199.112137,143.047882 
	C204.241028,130.911789 204.696304,118.836601 202.164917,105.991043 
	C198.641891,88.113518 189.881134,72.673378 181.395660,57.030670 
	C180.930222,56.172649 178.667038,55.319500 178.049026,55.717945 
	C176.788895,56.530376 175.346069,58.158245 175.271118,59.521271 
	C174.934021,65.651245 175.159546,71.809296 174.981537,77.951408 
	C174.463272,95.833977 167.216370,111.389801 157.512207,125.848022 
	C149.325851,138.044830 140.368835,149.722519 131.831909,161.686356 
	C121.081703,176.751907 115.119148,193.446960 116.087570,212.081940 
	C116.777298,225.354126 119.867653,238.210388 125.630455,251.107071 
M168.960083,316.573395 
	C171.053741,319.627441 172.864944,322.932159 175.303589,325.680054 
	C179.553452,330.468872 181.609161,329.729095 184.061249,323.821045 
	C186.810257,317.197571 189.211777,310.142944 193.370468,304.448853 
	C203.242767,290.931671 214.217209,278.226013 224.459503,264.970795 
	C235.507965,250.672256 242.563660,234.749435 241.931976,216.263992 
	C241.669662,208.587875 240.934052,200.898788 239.878067,193.289948 
	C239.255173,188.801758 237.583054,184.459213 236.382797,180.051163 
	C235.958313,180.102829 235.533813,180.154495 235.109329,180.206161 
	C234.739532,181.848724 234.431244,183.508041 233.989182,185.130920 
	C232.181244,191.767990 231.136063,198.756317 228.341675,204.953156 
	C221.171036,220.854858 207.169037,230.560410 194.046021,241.049744 
	C179.301865,252.834885 165.522232,265.365417 162.619232,285.683838 
	C161.062057,296.582672 163.055466,306.555481 168.960083,316.573395 
z"/>
<path fill="#000000" opacity="1.000000" stroke="none" 
	d="
M55.005974,148.000107 
	C59.637920,148.885239 63.229485,152.630920 62.981071,155.891998 
	C62.681156,159.829269 58.110203,164.889435 54.722210,163.708084 
	C51.709095,162.657425 48.271313,159.606094 47.294285,156.679001 
	C45.778172,152.136826 48.923786,149.175217 55.005974,148.000107 
z"/>
<path fill="#000000" opacity="1.000000" stroke="none" 
	d="
M310.437256,159.049530 
	C307.711212,160.867569 305.186035,163.779953 302.907684,163.598190 
	C300.526733,163.408264 297.479034,160.664368 296.359741,158.271271 
	C294.886719,155.121902 295.652222,151.207321 299.273193,149.372421 
	C301.280396,148.355270 304.247498,147.549210 306.080231,148.318893 
	C308.133331,149.181152 309.742096,151.751740 310.865112,153.929230 
	C311.516052,155.191360 310.830658,157.142731 310.437256,159.049530 
z"/>
<path fill="#000000" opacity="1.000000" stroke="none" 
	d="
M48.678490,291.819031 
	C52.058067,288.688416 55.639374,287.324646 58.901024,290.599640 
	C60.732838,292.438965 62.537056,295.620575 62.271408,297.961060 
	C61.714024,302.871826 56.520252,305.410126 51.914337,303.950012 
	C47.400883,302.519226 45.962639,297.690460 48.678490,291.819031 
z"/>
<path fill="#000000" opacity="1.000000" stroke="none" 
	d="
M300.563049,303.840668 
	C296.491119,301.439148 294.344208,296.476501 296.270477,293.416748 
	C298.360016,290.097595 301.582977,287.572998 305.750183,289.122375 
	C309.494049,290.514343 311.653961,293.498230 311.023804,297.929047 
	C310.474609,301.790771 306.898163,304.016693 300.563049,303.840668 
z"/>
<path fill="#000000" opacity="1.000000" stroke="none" 
	d="
M521.464478,276.991882 
	C512.653931,277.523041 505.089478,276.512024 498.432220,270.184204 
	C490.188202,262.348083 489.199860,246.717941 493.057098,237.892227 
	C496.545044,229.911423 501.514496,223.426666 510.859711,221.509644 
	C517.355103,220.177200 522.618347,222.735886 527.525330,226.146683 
	C535.670837,231.808533 540.268555,239.439087 539.010376,249.794891 
	C538.930603,250.451553 538.933655,251.134018 539.009766,251.791565 
	C540.801025,267.262787 534.058411,271.678375 521.464478,276.991882 
z"/>
<path fill="#000000" opacity="1.000000" stroke="none" 
	d="
M901.664124,282.987274 
	C895.559021,284.117767 889.984070,283.810028 885.092529,280.530396 
	C878.012085,275.783142 878.371643,266.151550 885.509033,261.123169 
	C892.763794,256.011963 900.708801,255.923355 908.799194,258.053589 
	C912.008118,258.898529 917.007202,257.236755 917.887268,262.225281 
	C919.101013,269.105804 917.773193,275.406891 910.795837,278.998169 
	C907.961548,280.457001 904.994446,281.657928 901.664124,282.987274 
z"/>
<path fill="#000000" opacity="1.000000" stroke="none" 
	d="
M967.001770,383.978149 
	C972.791199,401.515503 957.485718,422.949738 939.448608,422.997192 
	C932.812805,423.014648 926.176819,423.000000 919.271973,423.000000 
	C919.271973,401.359436 919.271973,379.965759 919.271973,357.883301 
	C930.172791,359.236023 941.523804,355.154602 952.023499,361.032257 
	C960.788635,365.938873 965.871704,373.462616 967.001770,383.978149 
z"/>
<path fill="#000000" opacity="1.000000" stroke="none" 
	d="
M750.171570,412.667236 
	C743.269958,402.826996 741.149719,392.360565 744.025269,381.049988 
	C747.462646,367.529327 757.097534,357.881927 771.189758,357.216064 
	C782.439880,356.684540 791.301575,362.865265 796.634216,372.482239 
	C804.110107,385.964203 802.878540,401.818634 792.266907,414.073578 
	C781.609009,426.382080 764.065918,426.609467 752.546387,415.047882 
	C751.841797,414.340668 751.125549,413.645020 750.171570,412.667236 
z"/>
<path fill="#FFFFFF" opacity="1.000000" stroke="none" 
	d="
M223.739227,140.356140 
	C227.348801,152.252945 230.518158,163.924438 229.904602,176.053284 
	C229.131897,191.328003 224.669601,205.516678 213.133499,216.191833 
	C201.482773,226.973053 188.552368,236.414505 177.296387,247.567032 
	C166.058243,258.701904 156.709290,271.470673 156.989456,288.642944 
	C157.059982,292.965698 157.000000,297.290588 157.000000,302.614777 
	C155.154343,301.557739 153.511124,301.136597 152.710999,300.078125 
	C144.500565,289.216797 137.098999,277.630646 135.273300,264.005493 
	C133.666382,252.013123 134.601807,239.755325 139.342209,228.259735 
	C146.779327,210.224625 158.880249,195.786530 173.899246,183.539627 
	C185.431015,174.136307 196.815857,164.572830 203.164764,150.473846 
	C208.447800,138.741791 210.566849,126.708191 208.058975,113.976608 
	C207.819107,112.758888 208.026947,111.452980 208.721191,109.955406 
	C216.128479,118.803238 219.786621,129.424316 223.739227,140.356140 
z"/>
<path fill="#FFFFFF" opacity="1.000000" stroke="none" 
	d="
M125.340820,250.806915 
	C119.867653,238.210388 116.777298,225.354126 116.087570,212.081940 
	C115.119148,193.446960 121.081703,176.751907 131.831909,161.686356 
	C140.368835,149.722519 149.325851,138.044830 157.512207,125.848022 
	C167.216370,111.389801 174.463272,95.833977 174.981537,77.951408 
	C175.159546,71.809296 174.934021,65.651245 175.271118,59.521271 
	C175.346069,58.158245 176.788895,56.530376 178.049026,55.717945 
	C178.667038,55.319500 180.930222,56.172649 181.395660,57.030670 
	C189.881134,72.673378 198.641891,88.113518 202.164917,105.991043 
	C204.696304,118.836601 204.241028,130.911789 199.112137,143.047882 
	C194.016937,155.104248 185.932526,164.726105 176.118729,172.929291 
	C157.191971,188.749802 139.401825,205.489182 131.794968,229.889435 
	C129.454620,237.396530 129.232559,245.563995 127.863686,254.595993 
	C126.985794,253.224487 126.308128,252.165787 125.340820,250.806915 
z"/>
<path fill="#FFFFFF" opacity="1.000000" stroke="none" 
	d="
M168.716339,316.280212 
	C163.055466,306.555481 161.062057,296.582672 162.619232,285.683838 
	C165.522232,265.365417 179.301865,252.834885 194.046021,241.049744 
	C207.169037,230.560410 221.171036,220.854858 228.341675,204.953156 
	C231.136063,198.756317 232.181244,191.767990 233.989182,185.130920 
	C234.431244,183.508041 234.739532,181.848724 235.109329,180.206161 
	C235.533813,180.154495 235.958313,180.102829 236.382797,180.051163 
	C237.583054,184.459213 239.255173,188.801758 239.878067,193.289948 
	C240.934052,200.898788 241.669662,208.587875 241.931976,216.263992 
	C242.563660,234.749435 235.507965,250.672256 224.459503,264.970795 
	C214.217209,278.226013 203.242767,290.931671 193.370468,304.448853 
	C189.211777,310.142944 186.810257,317.197571 184.061249,323.821045 
	C181.609161,329.729095 179.553452,330.468872 175.303589,325.680054 
	C172.864944,322.932159 171.053741,319.627441 168.716339,316.280212 
z"/>
</svg>